<?xml version="1.0" encoding="utf-8"?>
<!-- Generator: Adobe Illustrator 24.1.2, SVG Export Plug-In . SVG Version: 6.00 Build 0)  -->
<svg version="1.1" id="Layer_1" xmlns="http://www.w3.org/2000/svg" xmlns:xlink="http://www.w3.org/1999/xlink" x="0px" y="0px"
	 viewBox="0 0 239 364.1" style="enable-background:new 0 0 239 364.1;" xml:space="preserve">
<g>
	<path d="M35.8,4.1C45.6,15.8,73.6,25,92.6,29.3c23.1,5.5,47.7,1.8,63.8,6.8c18.2,4.3,29.5,9.8,39.3,16.6
		c6.3,6.1,11.2,17.8-9.8,26.4c-9.1,3.7-18.9,6.8-30.9,7.4L136,92c-25.9,7.4-48.4,21.5-72.2,28.9c-9.1,3.1-4.9,3.7,1.4,3.7
		c25.9-1.2,56.1-8.6,79.2-13.5c7.7-1.8,12.6-5.5,16.8-8c12.6-8.6,21.7-8.6,34.4-4.9l29.5,8.6c26.6,10.5,9.1,28.3-3.5,28.3
		c-7,0-16.8-1.2-29.5-1.8l-18.2,5.5c-11.9,3.7-34.4,15.4-47.7,22.1C104.5,172,96.1,180.6,87,188.6c-15.4,13.5-25.2,23.4-9.1,38.7
		c10.5,9.8,23.1,19.1,47.7,24.6c20.3,4.3,38.6-3.7,44.2-14.8c6.3-13.5,5.6-22.8,0.7-36.3c-4.9-12.3-9.8-22.1-24.5-24.6
		c-4.2-0.6-11.2-1.2-14-1.2c-12.6-1.2-16.1-3.7-1.4-6.8c11.2-2.5,22.4-6.1,33-6.8c14.7-1.2,37.2,6.8,52.6,18.4
		c14,11.7,14.7,22.1,14,40.6c0,20.9-10.5,33.2-21.7,43c-11.2,11.1-33,24-58.9,23.4c-14,0-30.2-1.2-49.8-7.4
		c-21.7-8-43.5-17.2-61-39.4c-9.8-12.3-11.9-40.6,4.9-52.9c17.5-12.9,33-22.8,47.7-30.1c11.9-5.5,32.3-16.6,44.2-24
		c-17.5,2.5-44.9,8.6-59.6,12.9c-25.2,6.8-37.2,12.3-60.3,14.8c-11.9,1.2-15.4,0-15.4-6.1c0-1.2,2.8-11.7,3.5-17.2
		c0.7-6.1,1.4-12.9,1.4-15.4c0-6.1,5.6-8.6,9.8-8c8.4,1.2,34.4-2.5,46.3-5.5c14.7-4.3,37.9-16.6,49.1-27.1
		c-9.8-3.1-19.6-8-30.2-14.1C61.7,57.6,53.3,48.4,47,41c-7.7-9.2-12.6-20.9-17.5-33.2C25.9-0.8,30.9-2.7,35.8,4.1z"/>
</g>
<circle cx="132" cy="345.1" r="18.9"/>
</svg>
